<?xml version="1.0" encoding="UTF-8"?>
<svg xmlns="http://www.w3.org/2000/svg" xmlns:xlink="http://www.w3.org/1999/xlink" width="240pt" height="55pt" viewBox="0 0 240 55" version="1.1">
<g id="surface1">
<path style=" stroke:none;fill-rule:nonzero;fill:rgb(100%,100%,100%);fill-opacity:1;" d="M 240 54.5 L 0.5 54.5 L 0.5 0.5 L 240 0.5 L 240 54.5 "/>
<path style=" stroke:none;fill-rule:nonzero;fill:rgb(9.01947%,18.823242%,34.509277%);fill-opacity:1;" d="M 45.222656 21.242188 L 37.574219 21.242188 L 37.574219 26.144531 L 43.96875 26.144531 C 44.558594 26.144531 45 26.28125 45.289063 26.550781 C 45.585938 26.8125 45.730469 27.164063 45.730469 27.609375 C 45.730469 28.050781 45.585938 28.40625 45.289063 28.667969 C 44.992188 28.929688 44.550781 29.058594 43.96875 29.058594 L 37.574219 29.058594 L 37.574219 35.371094 C 37.574219 36.175781 37.390625 36.773438 37.027344 37.164063 C 36.667969 37.546875 36.207031 37.738281 35.640625 37.738281 C 35.066406 37.738281 34.59375 37.542969 34.226563 37.152344 C 33.871094 36.757813 33.691406 36.164063 33.691406 35.371094 L 33.691406 20.628906 C 33.691406 20.070313 33.773438 19.617188 33.941406 19.269531 C 34.105469 18.910156 34.363281 18.65625 34.710938 18.496094 C 35.070313 18.332031 35.523438 18.25 36.070313 18.25 L 45.222656 18.25 C 45.839844 18.25 46.296875 18.386719 46.59375 18.667969 C 46.898438 18.9375 47.050781 19.292969 47.050781 19.738281 C 47.050781 20.191406 46.898438 20.558594 46.59375 20.835938 C 46.296875 21.105469 45.839844 21.242188 45.222656 21.242188 "/>
<path style=" stroke:none;fill-rule:nonzero;fill:rgb(9.01947%,18.823242%,34.509277%);fill-opacity:1;" d="M 58.375 17.921875 C 60.359375 17.921875 62.0625 18.328125 63.484375 19.136719 C 64.914063 19.941406 65.992188 21.085938 66.726563 22.574219 C 67.460938 24.058594 67.824219 25.800781 67.824219 27.804688 C 67.824219 29.285156 67.625 30.632813 67.222656 31.84375 C 66.824219 33.054688 66.222656 34.105469 65.417969 34.992188 C 64.617188 35.882813 63.632813 36.5625 62.464844 37.03125 C 61.296875 37.503906 59.960938 37.738281 58.453125 37.738281 C 56.953125 37.738281 55.609375 37.5 54.425781 37.019531 C 53.238281 36.53125 52.25 35.847656 51.457031 34.96875 C 50.664063 34.089844 50.0625 33.03125 49.65625 31.789063 C 49.253906 30.554688 49.050781 29.21875 49.050781 27.777344 C 49.050781 26.304688 49.261719 24.957031 49.679688 23.726563 C 50.105469 22.496094 50.722656 21.453125 51.523438 20.589844 C 52.324219 19.726563 53.300781 19.066406 54.453125 18.613281 C 55.601563 18.152344 56.910156 17.921875 58.375 17.921875 Z M 63.890625 27.777344 C 63.890625 26.375 63.664063 25.160156 63.210938 24.132813 C 62.757813 23.101563 62.109375 22.328125 61.261719 21.804688 C 60.425781 21.273438 59.460938 21.007813 58.375 21.007813 C 57.597656 21.007813 56.878906 21.15625 56.214844 21.453125 C 55.5625 21.738281 54.996094 22.160156 54.515625 22.71875 C 54.046875 23.277344 53.671875 23.992188 53.394531 24.863281 C 53.121094 25.726563 52.988281 26.699219 52.988281 27.777344 C 52.988281 28.867188 53.121094 29.851563 53.394531 30.730469 C 53.671875 31.613281 54.058594 32.34375 54.554688 32.929688 C 55.0625 33.503906 55.636719 33.933594 56.28125 34.222656 C 56.933594 34.511719 57.648438 34.65625 58.425781 34.65625 C 59.417969 34.65625 60.328125 34.40625 61.15625 33.910156 C 61.996094 33.410156 62.65625 32.644531 63.144531 31.609375 C 63.640625 30.574219 63.890625 29.292969 63.890625 27.777344 "/>
<path style=" stroke:none;fill-rule:nonzero;fill:rgb(9.01947%,18.823242%,34.509277%);fill-opacity:1;" d="M 76.359375 29.21875 L 75 29.21875 L 75 35.371094 C 75 36.183594 74.824219 36.78125 74.464844 37.164063 C 74.109375 37.546875 73.640625 37.738281 73.066406 37.738281 C 72.449219 37.738281 71.96875 37.539063 71.628906 37.140625 C 71.289063 36.738281 71.117188 36.148438 71.117188 35.371094 L 71.117188 20.628906 C 71.117188 19.789063 71.304688 19.183594 71.679688 18.808594 C 72.054688 18.4375 72.660156 18.25 73.496094 18.25 L 79.8125 18.25 C 80.683594 18.25 81.429688 18.289063 82.046875 18.367188 C 82.664063 18.4375 83.222656 18.585938 83.722656 18.808594 C 84.324219 19.0625 84.855469 19.425781 85.316406 19.894531 C 85.777344 20.367188 86.125 20.914063 86.363281 21.542969 C 86.605469 22.160156 86.726563 22.820313 86.726563 23.515625 C 86.726563 24.945313 86.324219 26.089844 85.511719 26.941406 C 84.710938 27.796875 83.488281 28.402344 81.851563 28.757813 C 82.539063 29.125 83.199219 29.664063 83.824219 30.378906 C 84.453125 31.09375 85.011719 31.855469 85.5 32.667969 C 85.996094 33.46875 86.378906 34.199219 86.648438 34.851563 C 86.925781 35.496094 87.066406 35.941406 87.066406 36.183594 C 87.066406 36.4375 86.984375 36.691406 86.820313 36.941406 C 86.660156 37.1875 86.445313 37.378906 86.164063 37.519531 C 85.886719 37.664063 85.5625 37.738281 85.199219 37.738281 C 84.761719 37.738281 84.398438 37.636719 84.101563 37.425781 C 83.804688 37.226563 83.546875 36.96875 83.328125 36.65625 C 83.121094 36.339844 82.832031 35.878906 82.464844 35.269531 L 80.910156 32.679688 C 80.351563 31.730469 79.851563 31.007813 79.40625 30.511719 C 78.972656 30.015625 78.527344 29.671875 78.074219 29.488281 C 77.621094 29.308594 77.050781 29.21875 76.359375 29.21875 Z M 78.582031 21.164063 L 75 21.164063 L 75 26.429688 L 78.480469 26.429688 C 79.410156 26.429688 80.195313 26.351563 80.832031 26.195313 C 81.46875 26.03125 81.953125 25.757813 82.28125 25.371094 C 82.621094 24.980469 82.792969 24.445313 82.792969 23.765625 C 82.792969 23.234375 82.65625 22.769531 82.386719 22.367188 C 82.117188 21.957031 81.742188 21.652344 81.261719 21.453125 C 80.808594 21.261719 79.917969 21.164063 78.582031 21.164063 "/>
<path style=" stroke:none;fill-rule:nonzero;fill:rgb(9.01947%,18.823242%,34.509277%);fill-opacity:1;" d="M 96.871094 34.523438 L 93.800781 22.3125 L 93.800781 35.542969 C 93.800781 36.277344 93.632813 36.824219 93.304688 37.191406 C 92.980469 37.554688 92.546875 37.738281 92.007813 37.738281 C 91.484375 37.738281 91.058594 37.558594 90.726563 37.203125 C 90.398438 36.839844 90.230469 36.285156 90.230469 35.542969 L 90.230469 20.378906 C 90.230469 19.542969 90.449219 18.980469 90.886719 18.691406 C 91.320313 18.398438 91.90625 18.25 92.648438 18.25 L 93.851563 18.25 C 94.574219 18.25 95.097656 18.3125 95.421875 18.445313 C 95.75 18.574219 95.996094 18.808594 96.152344 19.152344 C 96.308594 19.488281 96.488281 20.042969 96.6875 20.808594 L 99.472656 31.308594 L 102.257813 20.808594 C 102.457031 20.042969 102.636719 19.492188 102.792969 19.152344 C 102.949219 18.808594 103.191406 18.574219 103.511719 18.445313 C 103.84375 18.3125 104.371094 18.25 105.09375 18.25 L 106.296875 18.25 C 107.039063 18.25 107.625 18.398438 108.0625 18.691406 C 108.496094 18.980469 108.714844 19.542969 108.714844 20.378906 L 108.714844 35.542969 C 108.714844 36.277344 108.550781 36.824219 108.21875 37.191406 C 107.894531 37.554688 107.460938 37.738281 106.910156 37.738281 C 106.398438 37.738281 105.976563 37.554688 105.644531 37.191406 C 105.3125 36.824219 105.148438 36.277344 105.148438 35.542969 L 105.148438 22.3125 L 102.074219 34.523438 C 101.875 35.316406 101.710938 35.902344 101.578125 36.277344 C 101.453125 36.640625 101.226563 36.976563 100.886719 37.28125 C 100.546875 37.585938 100.074219 37.738281 99.472656 37.738281 C 99.019531 37.738281 98.636719 37.640625 98.324219 37.441406 C 98.007813 37.246094 97.765625 37 97.589844 36.695313 C 97.417969 36.390625 97.277344 36.054688 97.171875 35.6875 C 97.078125 35.3125 96.976563 34.925781 96.871094 34.523438 "/>
<path style=" stroke:none;fill-rule:nonzero;fill:rgb(9.01947%,18.823242%,34.509277%);fill-opacity:1;" d="M 112.730469 29.488281 L 112.730469 20.273438 C 112.730469 19.488281 112.902344 18.902344 113.253906 18.511719 C 113.609375 18.117188 114.074219 17.921875 114.648438 17.921875 C 115.253906 17.921875 115.726563 18.117188 116.074219 18.511719 C 116.433594 18.902344 116.609375 19.488281 116.609375 20.273438 L 116.609375 29.699219 C 116.609375 30.773438 116.730469 31.667969 116.964844 32.394531 C 117.207031 33.105469 117.636719 33.664063 118.246094 34.066406 C 118.855469 34.460938 119.710938 34.65625 120.808594 34.65625 C 122.324219 34.65625 123.394531 34.253906 124.023438 33.453125 C 124.648438 32.640625 124.964844 31.417969 124.964844 29.777344 L 124.964844 20.273438 C 124.964844 19.480469 125.140625 18.894531 125.488281 18.511719 C 125.835938 18.117188 126.304688 17.921875 126.886719 17.921875 C 127.472656 17.921875 127.941406 18.117188 128.296875 18.511719 C 128.664063 18.894531 128.847656 19.480469 128.847656 20.273438 L 128.847656 29.488281 C 128.847656 30.988281 128.699219 32.238281 128.402344 33.242188 C 128.113281 34.246094 127.566406 35.125 126.757813 35.882813 C 126.058594 36.527344 125.246094 37 124.324219 37.292969 C 123.398438 37.59375 122.320313 37.738281 121.082031 37.738281 C 119.609375 37.738281 118.339844 37.582031 117.277344 37.269531 C 116.214844 36.945313 115.347656 36.453125 114.675781 35.789063 C 114.003906 35.121094 113.511719 34.265625 113.199219 33.230469 C 112.886719 32.183594 112.730469 30.9375 112.730469 29.488281 "/>
<path style=" stroke:none;fill-rule:nonzero;fill:rgb(9.01947%,18.823242%,34.509277%);fill-opacity:1;" d="M 136.847656 20.273438 L 136.847656 34.222656 L 144.71875 34.222656 C 145.34375 34.222656 145.824219 34.375 146.15625 34.679688 C 146.496094 34.984375 146.664063 35.367188 146.664063 35.832031 C 146.664063 36.300781 146.5 36.683594 146.167969 36.980469 C 145.835938 37.269531 145.355469 37.410156 144.71875 37.410156 L 135.34375 37.410156 C 134.496094 37.410156 133.890625 37.226563 133.515625 36.851563 C 133.148438 36.476563 132.964844 35.871094 132.964844 35.03125 L 132.964844 20.273438 C 132.964844 19.488281 133.140625 18.902344 133.488281 18.511719 C 133.847656 18.117188 134.3125 17.921875 134.886719 17.921875 C 135.472656 17.921875 135.941406 18.117188 136.300781 18.511719 C 136.664063 18.894531 136.847656 19.480469 136.847656 20.273438 "/>
<path style=" stroke:none;fill-rule:nonzero;fill:rgb(9.01947%,18.823242%,34.509277%);fill-opacity:1;" d="M 161.476563 35.242188 L 160.5625 32.839844 L 152.769531 32.839844 L 151.855469 35.292969 C 151.496094 36.253906 151.191406 36.902344 150.9375 37.242188 C 150.6875 37.574219 150.273438 37.738281 149.695313 37.738281 C 149.210938 37.738281 148.777344 37.558594 148.402344 37.203125 C 148.027344 36.847656 147.84375 36.441406 147.84375 35.988281 C 147.84375 35.726563 147.886719 35.457031 147.972656 35.175781 C 148.058594 34.898438 148.203125 34.511719 148.402344 34.015625 L 153.304688 21.570313 C 153.445313 21.210938 153.609375 20.785156 153.804688 20.289063 C 154.003906 19.78125 154.210938 19.363281 154.429688 19.03125 C 154.65625 18.703125 154.949219 18.4375 155.304688 18.234375 C 155.671875 18.027344 156.121094 17.921875 156.652344 17.921875 C 157.191406 17.921875 157.640625 18.027344 158 18.234375 C 158.363281 18.4375 158.65625 18.699219 158.875 19.019531 C 159.101563 19.34375 159.289063 19.691406 159.4375 20.066406 C 159.59375 20.429688 159.789063 20.925781 160.023438 21.542969 L 165.03125 33.910156 C 165.425781 34.851563 165.621094 35.535156 165.621094 35.960938 C 165.621094 36.40625 165.433594 36.816406 165.058594 37.191406 C 164.691406 37.554688 164.246094 37.738281 163.726563 37.738281 C 163.421875 37.738281 163.15625 37.683594 162.941406 37.570313 C 162.722656 37.464844 162.539063 37.320313 162.390625 37.140625 C 162.242188 36.945313 162.082031 36.660156 161.90625 36.277344 C 161.742188 35.882813 161.597656 35.539063 161.476563 35.242188 Z M 153.789063 29.921875 L 159.515625 29.921875 L 156.625 22.011719 Z M 153.789063 29.921875 "/>
<path style=" stroke:none;fill-rule:nonzero;fill:rgb(9.01947%,18.823242%,34.509277%);fill-opacity:1;" d="M 180.914063 21.453125 L 176.679688 21.453125 L 176.679688 35.371094 C 176.679688 36.175781 176.5 36.773438 176.144531 37.164063 C 175.785156 37.546875 175.324219 37.738281 174.757813 37.738281 C 174.183594 37.738281 173.710938 37.542969 173.347656 37.152344 C 172.988281 36.757813 172.8125 36.164063 172.8125 35.371094 L 172.8125 21.453125 L 168.574219 21.453125 C 167.910156 21.453125 167.421875 21.308594 167.097656 21.019531 C 166.773438 20.722656 166.613281 20.335938 166.613281 19.855469 C 166.613281 19.359375 166.777344 18.96875 167.109375 18.679688 C 167.449219 18.390625 167.9375 18.25 168.574219 18.25 L 180.914063 18.25 C 181.585938 18.25 182.082031 18.398438 182.40625 18.691406 C 182.734375 18.988281 182.902344 19.378906 182.902344 19.855469 C 182.902344 20.335938 182.734375 20.722656 182.40625 21.019531 C 182.074219 21.308594 181.578125 21.453125 180.914063 21.453125 "/>
<path style=" stroke:none;fill-rule:nonzero;fill:rgb(9.01947%,18.823242%,34.509277%);fill-opacity:1;" d="M 190.417969 29.21875 L 189.058594 29.21875 L 189.058594 35.371094 C 189.058594 36.183594 188.878906 36.78125 188.523438 37.164063 C 188.164063 37.546875 187.699219 37.738281 187.125 37.738281 C 186.507813 37.738281 186.027344 37.539063 185.6875 37.140625 C 185.347656 36.738281 185.175781 36.148438 185.175781 35.371094 L 185.175781 20.628906 C 185.175781 19.789063 185.363281 19.183594 185.738281 18.808594 C 186.113281 18.4375 186.71875 18.25 187.554688 18.25 L 193.867188 18.25 C 194.742188 18.25 195.484375 18.289063 196.105469 18.367188 C 196.722656 18.4375 197.28125 18.585938 197.777344 18.808594 C 198.378906 19.0625 198.910156 19.425781 199.371094 19.894531 C 199.835938 20.367188 200.183594 20.914063 200.417969 21.542969 C 200.664063 22.160156 200.785156 22.820313 200.785156 23.515625 C 200.785156 24.945313 200.378906 26.089844 199.570313 26.941406 C 198.769531 27.796875 197.546875 28.402344 195.910156 28.757813 C 196.597656 29.125 197.253906 29.664063 197.882813 30.378906 C 198.511719 31.09375 199.066406 31.855469 199.558594 32.667969 C 200.054688 33.46875 200.4375 34.199219 200.707031 34.851563 C 200.984375 35.496094 201.125 35.941406 201.125 36.183594 C 201.125 36.4375 201.042969 36.691406 200.878906 36.941406 C 200.71875 37.1875 200.503906 37.378906 200.222656 37.519531 C 199.941406 37.664063 199.621094 37.738281 199.257813 37.738281 C 198.820313 37.738281 198.453125 37.636719 198.15625 37.425781 C 197.859375 37.226563 197.605469 36.96875 197.386719 36.65625 C 197.179688 36.339844 196.890625 35.878906 196.523438 35.269531 L 194.96875 32.679688 C 194.410156 31.730469 193.910156 31.007813 193.464844 30.511719 C 193.027344 30.015625 192.585938 29.671875 192.132813 29.488281 C 191.679688 29.308594 191.105469 29.21875 190.417969 29.21875 Z M 192.640625 21.164063 L 189.058594 21.164063 L 189.058594 26.429688 L 192.535156 26.429688 C 193.46875 26.429688 194.253906 26.351563 194.890625 26.195313 C 195.523438 26.03125 196.011719 25.757813 196.339844 25.371094 C 196.679688 24.980469 196.851563 24.445313 196.851563 23.765625 C 196.851563 23.234375 196.714844 22.769531 196.445313 22.367188 C 196.175781 21.957031 195.800781 21.652344 195.320313 21.453125 C 194.867188 21.261719 193.976563 21.164063 192.640625 21.164063 "/>
<path style=" stroke:none;fill-rule:nonzero;fill:rgb(9.01947%,18.823242%,34.509277%);fill-opacity:1;" d="M 204.613281 35.371094 L 204.613281 20.273438 C 204.613281 19.488281 204.792969 18.902344 205.152344 18.511719 C 205.507813 18.117188 205.972656 17.921875 206.535156 17.921875 C 207.121094 17.921875 207.59375 18.117188 207.949219 18.511719 C 208.3125 18.894531 208.496094 19.480469 208.496094 20.273438 L 208.496094 35.371094 C 208.496094 36.164063 208.3125 36.757813 207.949219 37.152344 C 207.59375 37.542969 207.121094 37.738281 206.535156 37.738281 C 205.980469 37.738281 205.519531 37.542969 205.152344 37.152344 C 204.792969 36.75 204.613281 36.15625 204.613281 35.371094 "/>
<path style=" stroke:none;fill-rule:nonzero;fill:rgb(9.01947%,18.823242%,34.509277%);fill-opacity:1;" d="M 212.132813 33.6875 L 216.421875 27.425781 L 212.8125 21.855469 C 212.472656 21.316406 212.214844 20.855469 212.039063 20.46875 C 211.875 20.078125 211.792969 19.703125 211.792969 19.347656 C 211.792969 18.980469 211.953125 18.652344 212.273438 18.367188 C 212.605469 18.070313 213.007813 17.921875 213.480469 17.921875 C 214.019531 17.921875 214.4375 18.082031 214.734375 18.40625 C 215.039063 18.71875 215.457031 19.308594 215.988281 20.171875 L 218.863281 24.824219 L 221.9375 20.171875 C 222.1875 19.777344 222.402344 19.441406 222.578125 19.164063 C 222.761719 18.886719 222.933594 18.65625 223.101563 18.46875 C 223.265625 18.289063 223.449219 18.152344 223.648438 18.066406 C 223.855469 17.96875 224.097656 17.921875 224.367188 17.921875 C 224.855469 17.921875 225.253906 18.070313 225.558594 18.367188 C 225.871094 18.652344 226.027344 18.996094 226.027344 19.398438 C 226.027344 19.984375 225.691406 20.777344 225.019531 21.777344 L 221.242188 27.425781 L 225.308594 33.6875 C 225.675781 34.234375 225.941406 34.695313 226.105469 35.058594 C 226.269531 35.417969 226.355469 35.757813 226.355469 36.078125 C 226.355469 36.386719 226.28125 36.664063 226.132813 36.914063 C 225.984375 37.167969 225.773438 37.367188 225.503906 37.519531 C 225.234375 37.664063 224.929688 37.738281 224.589844 37.738281 C 224.226563 37.738281 223.914063 37.660156 223.660156 37.503906 C 223.410156 37.355469 223.203125 37.167969 223.046875 36.941406 C 222.890625 36.714844 222.597656 36.277344 222.171875 35.621094 L 218.800781 30.316406 L 215.21875 35.78125 C 214.9375 36.214844 214.738281 36.519531 214.613281 36.695313 C 214.503906 36.867188 214.363281 37.039063 214.195313 37.203125 C 214.03125 37.367188 213.835938 37.5 213.609375 37.59375 C 213.382813 37.691406 213.117188 37.738281 212.8125 37.738281 C 212.34375 37.738281 211.949219 37.59375 211.636719 37.308594 C 211.328125 37.019531 211.179688 36.601563 211.179688 36.050781 C 211.179688 35.40625 211.496094 34.617188 212.132813 33.6875 "/>
<path style=" stroke:none;fill-rule:nonzero;fill:rgb(50.587463%,9.803772%,21.960449%);fill-opacity:1;" d="M 10.296875 28.21875 C 10.296875 26.789063 11.457031 25.632813 12.882813 25.632813 C 14.3125 25.632813 15.46875 26.789063 15.46875 28.21875 C 15.46875 29.644531 14.3125 30.800781 12.882813 30.800781 C 11.457031 30.800781 10.296875 29.644531 10.296875 28.21875 "/>
<path style=" stroke:none;fill-rule:nonzero;fill:rgb(81.959534%,34.509277%,15.293884%);fill-opacity:1;" d="M 17.125 28.21875 C 17.125 26.789063 18.285156 25.632813 19.710938 25.632813 C 21.140625 25.632813 22.296875 26.789063 22.296875 28.21875 C 22.296875 29.644531 21.140625 30.800781 19.710938 30.800781 C 18.285156 30.800781 17.125 29.644531 17.125 28.21875 "/>
<path style=" stroke:none;fill-rule:nonzero;fill:rgb(81.959534%,66.273499%,16.862488%);fill-opacity:1;" d="M 23.953125 28.21875 C 23.953125 26.789063 25.109375 25.632813 26.539063 25.632813 C 27.96875 25.632813 29.125 26.789063 29.125 28.21875 C 29.125 29.644531 27.96875 30.800781 26.539063 30.800781 C 25.109375 30.800781 23.953125 29.644531 23.953125 28.21875 "/>
<path style=" stroke:none;fill-rule:nonzero;fill:rgb(81.959534%,34.509277%,15.293884%);fill-opacity:1;" d="M 10.296875 35.042969 C 10.296875 33.617188 11.457031 32.460938 12.882813 32.460938 C 14.3125 32.460938 15.46875 33.617188 15.46875 35.042969 C 15.46875 36.472656 14.3125 37.632813 12.882813 37.632813 C 11.457031 37.632813 10.296875 36.472656 10.296875 35.042969 "/>
<path style=" stroke:none;fill-rule:nonzero;fill:rgb(81.959534%,66.273499%,16.862488%);fill-opacity:1;" d="M 17.125 35.042969 C 17.125 33.617188 18.285156 32.460938 19.710938 32.460938 C 21.140625 32.460938 22.296875 33.617188 22.296875 35.042969 C 22.296875 36.472656 21.140625 37.632813 19.710938 37.632813 C 18.285156 37.632813 17.125 36.472656 17.125 35.042969 "/>
<path style=" stroke:none;fill-rule:nonzero;fill:rgb(81.959534%,66.273499%,16.862488%);fill-opacity:1;" d="M 23.953125 35.042969 C 23.953125 33.617188 25.109375 32.460938 26.539063 32.460938 C 27.96875 32.460938 29.125 33.617188 29.125 35.042969 C 29.125 36.472656 27.96875 37.632813 26.539063 37.632813 C 25.109375 37.632813 23.953125 36.472656 23.953125 35.042969 "/>
<path style=" stroke:none;fill-rule:nonzero;fill:rgb(50.587463%,9.803772%,21.960449%);fill-opacity:1;" d="M 10.296875 21.390625 C 10.296875 19.960938 11.457031 18.804688 12.882813 18.804688 C 14.3125 18.804688 15.46875 19.960938 15.46875 21.390625 C 15.46875 22.820313 14.3125 23.976563 12.882813 23.976563 C 11.457031 23.976563 10.296875 22.820313 10.296875 21.390625 "/>
<path style=" stroke:none;fill-rule:nonzero;fill:rgb(50.587463%,9.803772%,21.960449%);fill-opacity:1;" d="M 17.125 21.390625 C 17.125 19.960938 18.285156 18.804688 19.710938 18.804688 C 21.140625 18.804688 22.296875 19.960938 22.296875 21.390625 C 22.296875 22.820313 21.140625 23.976563 19.710938 23.976563 C 18.285156 23.976563 17.125 22.820313 17.125 21.390625 "/>
<path style=" stroke:none;fill-rule:nonzero;fill:rgb(81.959534%,34.509277%,15.293884%);fill-opacity:1;" d="M 23.953125 21.390625 C 23.953125 19.960938 25.109375 18.804688 26.539063 18.804688 C 27.96875 18.804688 29.125 19.960938 29.125 21.390625 C 29.125 22.820313 27.96875 23.976563 26.539063 23.976563 C 25.109375 23.976563 23.953125 22.820313 23.953125 21.390625 "/>
</g>
</svg>
